<svg width="20" height="22" viewBox="0 0 20 22" fill="none" xmlns="http://www.w3.org/2000/svg">
<path d="M17.5833 2.25001H13.0496C12.6054 0.993343 11.4138 0.0833435 10 0.0833435C8.58625 0.0833435 7.39458 0.993343 6.95042 2.25001H2.41667C1.21958 2.25001 0.25 3.21959 0.25 4.41668V19.5833C0.25 20.7804 1.21958 21.75 2.41667 21.75H17.5833C18.7804 21.75 19.75 20.7804 19.75 19.5833V4.41668C19.75 3.21959 18.7804 2.25001 17.5833 2.25001ZM10 2.25001C10.5958 2.25001 11.0833 2.73209 11.0833 3.33334C11.0833 3.93459 10.5958 4.41668 10 4.41668C9.40417 4.41668 8.91667 3.93459 8.91667 3.33334C8.91667 2.73209 9.40417 2.25001 10 2.25001ZM7.83333 17.4167L3.5 13.0833L5.03292 11.5504L7.83333 14.3508L14.9671 7.21709L16.5 8.75001L7.83333 17.4167Z" fill="black" fill-opacity="0.7"/>
</svg>
